{
  "accessors": [
    {
      "bufferView": 2,
      "componentType": 5126,
      "count": 410,
      "max": [
        103.61791229248047,
        584.7379150390625,
        103.61791229248047
      ],
      "min": [
        -103.61791229248047,
        -3.7700650691986084,
        -103.61791229248047
      ],
      "type": "VEC3"
    },
    {
      "bufferView": 2,
      "byteOffset": 4920,
      "componentType": 5126,
      "count": 410,
      "max": [
        1.0,
        1.0,
        1.0
      ],
      "min": [
        -1.0,
        -1.0,
        -1.0
      ],
      "type": "VEC3"
    },
    {
      "bufferView": 3,
      "componentType": 5126,
      "count": 410,
      "max": [
        0.9997217655181885,
        0.9317658543586731,
        0.9999752044677734,
        1.0
      ],
      "min": [
        -0.9997217655181885,
        -0.999997615814209,
        -0.9997218251228333,
        1.0
      ],
      "type": "VEC4"
    },
    {
      "bufferView": 1,
      "componentType": 5126,
      "count": 410,
      "max": [
        0.9988700151443481,
        0.9608460068702698
      ],
      "min": [
        0.03376900032162666,
        0.001129999989643693
      ],
      "type": "VEC2"
    },
    {
      "bufferView": 0,
      "componentType": 5125,
      "count": 1728,
      "type": "SCALAR"
    }
  ],
  "asset": {
    "extras": {
      "author": "NKaap (https://sketchfab.com/nkaap)",
      "license": "CC-BY-4.0 (http://creativecommons.org/licenses/by/4.0/)",
      "source": "https://sketchfab.com/3d-models/prime-bottle-tropical-punch-gameready-free-7f02d5806ea34cf39d9a4f9cd0d16979",
      "title": "Prime Bottle | Tropical Punch | Gameready | Free"
    },
    "generator": "Sketchfab-15.23.0",
    "version": "2.0"
  },
  "bufferViews": [
    {
      "buffer": 0,
      "byteLength": 6912,
      "name": "floatBufferViews",
      "target": 34963
    },
    {
      "buffer": 0,
      "byteLength": 3280,
      "byteOffset": 6912,
      "byteStride": 8,
      "name": "floatBufferViews",
      "target": 34962
    },
    {
      "buffer": 0,
      "byteLength": 9840,
      "byteOffset": 10192,
      "byteStride": 12,
      "name": "floatBufferViews",
      "target": 34962
    },
    {
      "buffer": 0,
      "byteLength": 6560,
      "byteOffset": 20032,
      "byteStride": 16,
      "name": "floatBufferViews",
      "target": 34962
    }
  ],
  "buffers": [
    {
      "byteLength": 26592,
      "uri": "scene.bin"
    }
  ],
  "images": [
    {
      "uri": "textures/Material_001_baseColor.jpeg"
    },
    {
      "uri": "textures/Material_001_metallicRoughness.png"
    },
    {
      "uri": "textures/Material_001_normal.png"
    }
  ],
  "materials": [
    {
      "doubleSided": true,
      "name": "Material_001",
      "normalTexture": {
        "index": 2
      },
      "occlusionTexture": {
        "index": 1
      },
      "pbrMetallicRoughness": {
        "baseColorTexture": {
          "index": 0
        },
        "metallicRoughnessTexture": {
          "index": 1
        }
      }
    }
  ],
  "meshes": [
    {
      "name": "defaultMaterial",
      "primitives": [
        {
          "attributes": {
            "NORMAL": 1,
            "POSITION": 0,
            "TANGENT": 2,
            "TEXCOORD_0": 3
          },
          "indices": 4,
          "material": 0,
          "mode": 4
        }
      ]
    }
  ],
  "nodes": [
    {
      "children": [
        1
      ],
      "matrix": [
        1.0,
        0.0,
        0.0,
        0.0,
        0.0,
        2.220446049250313e-16,
        -1.0,
        0.0,
        0.0,
        1.0,
        2.220446049250313e-16,
        0.0,
        0.0,
        0.0,
        0.0,
        1.0
      ],
      "name": "Sketchfab_model"
    },
    {
      "children": [
        2
      ],
      "matrix": [
        1.0,
        0.0,
        0.0,
        0.0,
        0.0,
        -4.371139006309477e-08,
        0.999999999999999,
        0.0,
        0.0,
        -0.999999999999999,
        -4.371139006309477e-08,
        0.0,
        0.0,
        0.0,
        0.0,
        1.0
      ],
      "name": "Collada visual scene group"
    },
    {
      "children": [
        3
      ],
      "matrix": [
        0.0,
        0.0,
        -1.0,
        0.0,
        0.0,
        1.0,
        0.0,
        0.0,
        1.0,
        0.0,
        0.0,
        0.0,
        0.0,
        0.0,
        0.0,
        1.0
      ],
      "name": "Cylinder_Low"
    },
    {
      "mesh": 0,
      "name": "defaultMaterial"
    }
  ],
  "samplers": [
    {
      "magFilter": 9729,
      "minFilter": 9987,
      "wrapS": 10497,
      "wrapT": 10497
    }
  ],
  "scene": 0,
  "scenes": [
    {
      "name": "Sketchfab_Scene",
      "nodes": [
        0
      ]
    }
  ],
  "textures": [
    {
      "sampler": 0,
      "source": 0
    },
    {
      "sampler": 0,
      "source": 1
    },
    {
      "sampler": 0,
      "source": 2
    }
  ]
}
